<svg width="23" height="23" viewBox="0 0 23 23" fill="none" xmlns="http://www.w3.org/2000/svg">
<path d="M15.8125 13.4167C14.375 13.4167 13.225 13.8001 12.3625 14.2792C13.7042 15.4292 14.2792 16.7709 14.375 16.8667L14.4709 17.0584V19.1667H22.1376V17.2501C22.0417 17.2501 20.5084 13.4167 15.8125 13.4167Z" fill="#000"/>
<path d="M15.8127 11.5001C17.6651 11.5001 19.1668 9.99837 19.1668 8.14591C19.1668 6.29346 17.6651 4.79175 15.8127 4.79175C13.9602 4.79175 12.4585 6.29346 12.4585 8.14591C12.4585 9.99837 13.9602 11.5001 15.8127 11.5001Z" fill="#000"/>
<path d="M3.83325 8.14591C3.83325 6.32508 5.36659 4.79175 7.18742 4.79175C9.00825 4.79175 10.5416 6.32508 10.5416 8.14591C10.5416 9.96675 9.00825 11.5001 7.18742 11.5001C5.36659 11.5001 3.83325 9.96675 3.83325 8.14591ZM7.18742 13.4167C2.49159 13.4167 0.958252 17.2501 0.958252 17.2501V19.1667H13.4166V17.2501C13.4166 17.2501 11.8833 13.4167 7.18742 13.4167Z" fill="#000"/>
</svg>
